# xmcd CD database file
#
# Track frame offsets:
#	150
#	11831
#	23059
#	32364
#	49100
#	65862
#	76713
#	89853
#	100384
#	111956
#	125383
#	146419
#	159373
#	173026
#	185243
#	197926
#	209679
#	223796
#	236978
#	248662
#	263022
#	273674
#	285436
#
# Disc length: 3983 seconds
#
# Revision: 0
# Processed by: cddbd v1.5.2PL0 Copyright (c) Steve Scherf et al.
# Submitted via: CDex 1.51
#
DISCID=5b0f8d17
DTITLE=Five blind boys of Mississippi - Something to shout about ..from the golden age of gospel
DYEAR=2007
DGENRE=Jazz
TTITLE0=Something to shout about
TTITLE1=Time is winding up
TTITLE2=Our John saw the number
TTITLE3=Oh why
TTITLE4=Father I stretch my hands to thee
TTITLE5=Jesus rose
TTITLE6=Learning on Jesus
TTITLE7=Where there's will (There's a way)
TTITLE8=Just a little while
TTITLE9=Waiting at the river
TTITLE10=What is an album
TTITLE11=Our father
TTITLE12=Coming home
TTITLE13=Song of praise
TTITLE14=Save a seat for me
TTITLE15=There's no need to cry
TTITLE16=Certainly lord
TTITLE17=Somebody's knocking
TTITLE18=Walk together children
TTITLE19=Learning on the everlasting arm
TTITLE20=Someone watches
TTITLE21=That awful hour
TTITLE22=Don't give up
EXTD=YEAR: 2007
EXTT0=
EXTT1=
EXTT2=
EXTT3=
EXTT4=
EXTT5=
EXTT6=
EXTT7=
EXTT8=
EXTT9=
EXTT10=
EXTT11=
EXTT12=
EXTT13=
EXTT14=
EXTT15=
EXTT16=
EXTT17=
EXTT18=
EXTT19=
EXTT20=
EXTT21=
EXTT22=
PLAYORDER=
